<?xml version="1.0" encoding="UTF-8"?>
<svg id="Layer_2" data-name="Layer 2" xmlns="http://www.w3.org/2000/svg" viewBox="0 0 2182.94 400">
  <defs>
    <style>
      .cls-1 {
        fill: none;
      }

      .cls-2 {
        fill: #00aeef;
      }

      .cls-3, .cls-4, .cls-5 {
        fill: #008ccf;
      }

      .cls-4 {
        stroke-miterlimit: 10;
      }

      .cls-4, .cls-5 {
        stroke: #008ccf;
        stroke-width: 10.72px;
      }

      .cls-5 {
        stroke-linejoin: round;
      }
    </style>
  </defs>
  <g id="Layer_1-2" data-name="Layer 1">
    <rect class="cls-1" width="400" height="400"/>
    <path class="cls-2" d="m137.5,75c-69.04,0-125,55.96-125,125s55.96,125,125,125,125-55.96,125-125-55.96-125-125-125Zm0,162.5c-20.71,0-37.5-16.79-37.5-37.5s16.79-37.5,37.5-37.5,37.5,16.79,37.5,37.5c.03,20.68-16.72,37.47-37.4,37.5-.03,0-.07,0-.1,0Z"/>
    <path class="cls-3" d="m278,168.75c31.76,9.14,69.25,0,69.25,0-10.88,47.5-45.38,77.25-95.13,80.87-19.72,45.77-64.79,75.41-114.62,75.38l37.5-119.19c38.55-122.51,58.31-130.81,149.73-130.81h62.77c-10.5,46.25-46.69,81.58-109.5,93.75Z"/>
    <rect class="cls-1" x="500" width="1400" height="400"/>
    <path class="cls-2" d="m618.68,78c-69.85,0-104.68,51.54-104.68,121.83s34.3,122.17,104.68,122.17,105-51,105-122.12c.02-71.54-33.68-121.88-105-121.88Zm0,203.66c-40,0-47-41.82-47-81.86s6.61-81.53,47-81.53,47.32,40.92,47.32,81.56-6.53,81.86-47.32,81.86v-.03Zm238.72-149.27c-22.72,0-39.74,9.65-54.35,26.84l-1.27-7.23c-1.4-8.03-8.37-13.89-16.52-13.89h-32.2v169.75c0,4.63,3.74,8.38,8.37,8.39h44.64v-116.63c-.04-3.37.97-6.68,2.89-9.45,8.96-12.58,18.29-18.87,28-18.86,13.88,0,16.77,10.05,16.77,23.82v112.73c0,4.63,3.76,8.39,8.39,8.39h44.62v-130.17c-.02-35.23-19.48-53.69-49.34-53.69Zm149.15,147.33c-.94.17-1.9.27-2.86.29-6.05,0-9.07-3.69-9.06-11.06V61.59l-45.53,4.91c-4.26.46-7.49,4.06-7.49,8.34v196.16c0,33.69,19,51,49,51,11.03.17,21.98-1.87,32.21-6l-8.68-31.37c-.88-3.35-4.17-5.48-7.59-4.91h0Zm138.45-141.63c-3.87,0-7.24,2.65-8.15,6.42l-33.35,137.85-30.5-137.69c-.85-3.84-4.25-6.58-8.19-6.58h-49.63l50.82,166.28c2.15,7.04,8.64,11.86,16,11.88h5.69c-10.86,26.15-27.23,33.27-57.37,37.25l4.53,29.52c.64,4.38,4.59,7.5,9,7.11,47-4.71,78.1-27.16,92.53-73.54l56.7-178.5h-48.08Z"/>
    <g>
      <path class="cls-4" d="m1272.05,72.84l59.9,179.9,59.76-179.9h46.64v234.7h-35.94v-77.37l3.57-103.49-61.33,180.86h-25.82l-61.19-180.7,3.57,103.33v77.37h-35.94V72.84h46.78Z"/>
      <path class="cls-4" d="m1548.53,310.76c-21.96,0-39.77-7.82-53.41-23.45-13.65-15.64-20.47-36.46-20.47-62.46v-4.84c0-17.41,2.97-32.96,8.91-46.67,5.94-13.7,14.29-24.37,25.03-32,10.74-7.63,22.72-11.44,35.94-11.44,21.01,0,37.25,7.58,48.71,22.73,11.46,15.15,17.19,36.59,17.19,64.32v15.8h-100.84c1.04,14.4,5.3,25.79,12.77,34.17,7.46,8.38,16.85,12.57,28.17,12.57,15.88,0,28.81-7.25,38.79-21.76l18.68,20.15c-6.18,10.43-14.43,18.51-24.75,24.26-10.32,5.75-21.89,8.62-34.73,8.62Zm-4.14-149.43c-9.51,0-17.19,3.76-23.03,11.28-5.85,7.52-9.58,18-11.2,31.43h66.04v-2.9c-.76-13.11-3.85-23.02-9.27-29.74-5.42-6.71-12.93-10.07-22.54-10.07Z"/>
      <path class="cls-5" d="m1672.83,133.12l1,18.22c10.84-14.29,25.67-21.44,44.5-21.44,20.63,0,34.75,8.92,42.36,26.76,11.22-17.84,27-26.76,47.35-26.76,17.02,0,29.69,5.32,38.01,15.96,8.32,10.64,12.57,26.33,12.77,47.07v114.61h-34.66v-113.48c0-11.07-2.14-19.18-6.42-24.34s-11.36-7.74-21.25-7.74c-7.89,0-14.33,2.39-19.33,7.17-4.99,4.78-8.49,11.04-10.48,18.78l.14,119.61h-34.66v-114.77c-.48-20.52-9.75-30.79-27.81-30.79-13.88,0-23.73,6.4-29.52,19.18v126.38h-34.66v-174.41h32.66Z"/>
      <path class="cls-4" d="m1965.29,310.76c-21.96,0-39.77-7.82-53.41-23.45-13.65-15.64-20.47-36.46-20.47-62.46v-4.84c0-17.41,2.97-32.96,8.91-46.67,5.94-13.7,14.28-24.37,25.03-32,10.74-7.63,22.72-11.44,35.94-11.44,21.01,0,37.25,7.58,48.71,22.73,11.46,15.15,17.19,36.59,17.19,64.32v15.8h-100.84c1.04,14.4,5.3,25.79,12.77,34.17,7.46,8.38,16.85,12.57,28.17,12.57,15.88,0,28.81-7.25,38.79-21.76l18.68,20.15c-6.18,10.43-14.43,18.51-24.75,24.26-10.32,5.75-21.89,8.62-34.73,8.62Zm-4.14-149.43c-9.51,0-17.19,3.76-23.03,11.28-5.85,7.52-9.58,18-11.2,31.43h66.04v-2.9c-.76-13.11-3.85-23.02-9.27-29.74-5.42-6.71-12.93-10.07-22.54-10.07Z"/>
      <path class="cls-4" d="m2143.5,260.15c0-6.98-2.55-12.3-7.63-15.96-5.09-3.65-13.53-6.88-25.32-9.67-11.79-2.79-21.63-6.34-29.52-10.64-17.31-9.45-25.96-23.16-25.96-41.11,0-15.04,5.61-27.62,16.83-37.72,11.22-10.1,25.48-15.15,42.79-15.15,18.45,0,33.35,5.16,44.71,15.47,11.36,10.32,17.04,23.7,17.04,40.14h-34.66c0-7.52-2.47-13.78-7.42-18.78-4.95-5-11.51-7.5-19.68-7.5-7.61,0-13.81,1.99-18.61,5.96-4.8,3.98-7.2,9.3-7.2,15.96,0,6.02,2.23,10.69,6.7,14.02,4.47,3.33,13.5,6.69,27.1,10.07,13.6,3.39,24.27,7.42,32.02,12.09,7.75,4.67,13.5,10.29,17.26,16.85,3.75,6.56,5.63,14.51,5.63,23.86,0,15.69-5.75,28.4-17.26,38.12-11.51,9.73-26.58,14.59-45.21,14.59-12.65,0-23.91-2.58-33.8-7.74-9.89-5.16-17.59-12.25-23.11-21.28-5.52-9.03-8.27-18.75-8.27-29.18h33.66c.47,9.24,3.57,16.36,9.27,21.36,5.71,5,13.26,7.5,22.68,7.5s16.07-1.96,20.82-5.88c4.75-3.92,7.13-9.05,7.13-15.39Z"/>
    </g>
  </g>
</svg>